<svg width="29" height="30" viewBox="0 0 29 30" fill="none" xmlns="http://www.w3.org/2000/svg">
<g id="Group 17">
<path id="Vector" d="M28.718 11.958H27.55V11.8979H14.5V17.6979H22.6947C21.4992 21.0742 18.2867 23.4979 14.5 23.4979C9.69543 23.4979 5.8 19.6024 5.8 14.7979C5.8 9.99328 9.69543 6.09785 14.5 6.09785C16.7178 6.09785 18.7355 6.9345 20.2717 8.30113L24.3731 4.1998C21.7833 1.78628 18.3193 0.297852 14.5 0.297852C6.49238 0.297852 0 6.79023 0 14.7979C0 22.8055 6.49238 29.2979 14.5 29.2979C22.5076 29.2979 29 22.8055 29 14.7979C29 13.8256 28.9 12.8766 28.718 11.958Z" fill="#FFC107"/>
<path id="Vector_2" d="M1.67188 8.04883L6.43585 11.5426C7.7249 8.35115 10.8468 6.09785 14.5 6.09785C16.7178 6.09785 18.7355 6.9345 20.2718 8.30113L24.3731 4.1998C21.7834 1.78628 18.3193 0.297852 14.5 0.297852C8.93058 0.297852 4.10063 3.44218 1.67188 8.04883Z" fill="#FF3D00"/>
<path id="Vector_3" d="M14.5001 29.2972C18.2454 29.2972 21.6486 27.8639 24.2216 25.533L19.7338 21.7354C18.2291 22.8798 16.3905 23.4987 14.5001 23.4972C10.7286 23.4972 7.52628 21.0924 6.31988 17.7363L1.59143 21.3795C3.99118 26.0753 8.86463 29.2972 14.5001 29.2972Z" fill="#4CAF50"/>
<path id="Vector_4" d="M28.718 11.9601H27.55V11.8999H14.5V17.6999H22.6947C22.1228 19.3068 21.0927 20.711 19.7316 21.7389L19.7338 21.7374L24.2215 25.535C23.904 25.8235 29 22.0499 29 14.7999C29 13.8277 28.9 12.8787 28.718 11.9601Z" fill="#1976D2"/>
</g>
</svg>
