<svg width="18" height="27" viewBox="0 0 18 27" fill="none" xmlns="http://www.w3.org/2000/svg">
<g id="Group">
<path id="Vector" fill-rule="evenodd" clip-rule="evenodd" d="M14.9999 6C14.9999 7.5913 14.3678 9.11742 13.2426 10.2426C12.1174 11.3679 10.5912 12 8.99994 12C7.40864 12 5.88252 11.3679 4.7573 10.2426C3.63208 9.11742 2.99994 7.5913 2.99994 6C2.99994 4.4087 3.63208 2.88258 4.7573 1.75736C5.88252 0.632141 7.40864 0 8.99994 0C10.5912 0 12.1174 0.632141 13.2426 1.75736C14.3678 2.88258 14.9999 4.4087 14.9999 6ZM11.9999 6C11.9999 6.79565 11.6839 7.55871 11.1213 8.12132C10.5587 8.68393 9.79559 9 8.99994 9C8.20429 9 7.44123 8.68393 6.87862 8.12132C6.31601 7.55871 5.99994 6.79565 5.99994 6C5.99994 5.20435 6.31601 4.44129 6.87862 3.87868C7.44123 3.31607 8.20429 3 8.99994 3C9.79559 3 10.5587 3.31607 11.1213 3.87868C11.6839 4.44129 11.9999 5.20435 11.9999 6Z" fill="#2B2B2B"/>
<path id="Vector_2" d="M15 18C15 17.6022 14.842 17.2206 14.5607 16.9393C14.2794 16.658 13.8978 16.5 13.5 16.5H4.5C4.10218 16.5 3.72064 16.658 3.43934 16.9393C3.15804 17.2206 3 17.6022 3 18V27H0V18C0 16.8065 0.474106 15.6619 1.31802 14.818C2.16193 13.9741 3.30653 13.5 4.5 13.5H13.5C14.6935 13.5 15.8381 13.9741 16.682 14.818C17.5259 15.6619 18 16.8065 18 18V27H15V18Z" fill="#2B2B2B"/>
</g>
</svg>
