<svg width="35" height="27" viewBox="0 0 35 27" fill="none" xmlns="http://www.w3.org/2000/svg">
<path id="Vector" d="M29.6965 8.10785V5.70976C29.6965 4.19544 29.0949 2.74314 28.0241 1.67235C26.9533 0.601562 25.501 0 23.9867 0H10.2833C8.76897 0 7.31667 0.601562 6.24588 1.67235C5.17509 2.74314 4.57353 4.19544 4.57353 5.70976V8.10785C3.2828 8.36995 2.12236 9.07021 1.28885 10.09C0.455332 11.1098 0 12.3863 0 13.7034C0 15.0205 0.455332 16.2971 1.28885 17.3168C2.12236 18.3366 3.2828 19.0369 4.57353 19.299V23.981C4.57353 24.5867 4.81416 25.1676 5.24247 25.5959C5.67079 26.0243 6.25171 26.2649 6.85743 26.2649H27.4126C28.0183 26.2649 28.5992 26.0243 29.0275 25.5959C29.4558 25.1676 29.6965 24.5867 29.6965 23.981V19.299C30.9872 19.0369 32.1476 18.3366 32.9812 17.3168C33.8147 16.2971 34.27 15.0205 34.27 13.7034C34.27 12.3863 33.8147 11.1098 32.9812 10.09C32.1476 9.07021 30.9872 8.36995 29.6965 8.10785ZM10.2833 2.2839H23.9867C24.8953 2.2839 25.7667 2.64484 26.4092 3.28731C27.0516 3.92978 27.4126 4.80116 27.4126 5.70976V8.10785C26.1238 8.37285 24.9657 9.07409 24.1336 10.0934C23.3016 11.1127 22.8464 12.3876 22.8448 13.7034H11.4252C11.4236 12.3876 10.9684 11.1127 10.1364 10.0934C9.3043 9.07409 8.14625 8.37285 6.85743 8.10785V5.70976C6.85743 4.80116 7.21837 3.92978 7.86084 3.28731C8.50332 2.64484 9.3747 2.2839 10.2833 2.2839ZM28.6102 17.1293H28.5545C28.2517 17.1293 27.9612 17.2496 27.747 17.4637C27.5329 17.6779 27.4126 17.9684 27.4126 18.2712V23.981H6.85743V18.2712C6.85743 17.9684 6.73712 17.6779 6.52296 17.4637C6.30881 17.2496 6.01835 17.1293 5.71548 17.1293H5.65981C4.98472 17.1183 4.32792 16.9081 3.77192 16.525C3.21591 16.142 2.78548 15.6032 2.5347 14.9763C2.28392 14.3494 2.22397 13.6624 2.36238 13.0016C2.50079 12.3408 2.83138 11.7355 3.31264 11.262C3.7939 10.7884 4.40436 10.4676 5.06734 10.3399C5.73033 10.2121 6.41628 10.2832 7.03904 10.544C7.66179 10.8049 8.19359 11.2439 8.56762 11.806C8.94165 12.3681 9.14125 13.0282 9.14134 13.7034V19.4132C9.14134 19.716 9.26165 20.0065 9.47581 20.2207C9.68997 20.4348 9.98043 20.5551 10.2833 20.5551C10.5862 20.5551 10.8766 20.4348 11.0908 20.2207C11.3049 20.0065 11.4252 19.716 11.4252 19.4132V15.9873H22.8448V19.4132C22.8448 19.716 22.9651 20.0065 23.1792 20.2207C23.3934 20.4348 23.6838 20.5551 23.9867 20.5551C24.2896 20.5551 24.58 20.4348 24.7942 20.2207C25.0084 20.0065 25.1287 19.716 25.1287 19.4132V13.7034C25.1288 13.0282 25.3284 12.3681 25.7024 11.806C26.0764 11.2439 26.6082 10.8049 27.231 10.544C27.8537 10.2832 28.5397 10.2121 29.2027 10.3399C29.8656 10.4676 30.4761 10.7884 30.9574 11.262C31.4386 11.7355 31.7692 12.3408 31.9076 13.0016C32.046 13.6624 31.9861 14.3494 31.7353 14.9763C31.4845 15.6032 31.0541 16.142 30.4981 16.525C29.9421 16.9081 29.2853 17.1183 28.6102 17.1293Z" fill="#2B2B2B"/>
</svg>
